<?xml version="1.0" encoding="UTF-8"?>
<svg width="103px" height="40px" viewBox="0 0 103 40" version="1.1" xmlns="http://www.w3.org/2000/svg" xmlns:xlink="http://www.w3.org/1999/xlink">
    <!-- Generator: Sketch 56.3 (81716) - https://sketch.com -->
    <title>LogoGAE Copy 2</title>
    <desc>Created with Sketch.</desc>
    <g id="Desktop" stroke="none" stroke-width="1" fill="none" fill-rule="evenodd">
        <g id="01e02b-Support-Inquiry" transform="translate(-206.000000, -25.000000)" fill="#2F4E9E">
            <g id="Group-2" transform="translate(80.000000, 0.000000)">
                <g id="LogoGAE" transform="translate(126.000000, 25.000000)">
                    <path d="M44.4469629,8.38335913 C44.4469629,10.6563975 44.425012,12.8893001 44.4829848,15.1199415 C44.4886132,15.3240118 44.992357,15.6677093 45.2794065,15.684668 C46.4315445,15.7502419 47.5893109,15.7134979 48.7442631,15.7134979 C50.028669,15.7140632 51.3125121,15.7134979 52.8620166,15.7134979 C52.4939178,15.0803711 52.3059285,14.6586634 52.0335129,14.3047907 C50.8509815,12.7734152 49.5018487,11.352837 48.4859185,9.71688248 C47.4536659,8.05492459 46.0932763,8.16289532 44.4469629,8.38335913 L44.4469629,8.38335913 Z M99.5914276,0.0990077991 L99.5914276,8.16572178 L79.4129718,8.16572178 C79.4129718,10.6219147 79.4005893,12.9000406 79.4366112,15.1776013 C79.4394254,15.3551029 79.7568684,15.6157024 79.9729998,15.6801457 C80.2746833,15.7694618 80.6185798,15.7129326 80.9444655,15.7129326 C87.790878,15.7140632 94.6367277,15.7134979 101.482577,15.7134979 L102.832273,15.7134979 L102.832273,24.0447684 L101.602463,24.0447684 C94.4667494,24.0447684 87.3310359,24.0634231 80.1953225,24.0227221 C79.2317366,24.0170691 78.8619493,24.2923662 78.9936544,25.2669293 C79.0476872,25.6648947 79.0026599,26.0769925 79.0026599,26.482872 C79.002097,29.3392914 80.8290828,31.1945791 83.6798786,31.2030585 C89.692159,31.2211478 95.7050022,31.227366 101.717845,31.2381066 C102.114649,31.2392372 102.51089,31.2386719 103,31.2386719 L103,39.2511179 C102.61389,39.2697725 102.261551,39.3008635 101.909775,39.3008635 C93.1440702,39.30369 84.3778029,39.2906883 75.6126613,39.3093429 C72.5209691,39.3166917 70.0866766,38.0029536 68.2056579,35.5885923 C65.3925726,31.9780736 62.6126949,28.3404208 59.8502654,24.6892011 C59.3892977,24.0798165 58.9204501,23.7971706 58.1403508,23.8050847 C54.0473623,23.8446551 49.953811,23.8220435 45.8608225,23.8254352 C45.5062319,23.8260005 45.1516413,23.8587874 44.6844823,23.8825297 L44.6844823,39.3031247 L43.3077703,39.3031247 C35.3390504,39.3031247 27.3697676,39.3359116 19.4010477,39.2918189 C13.661183,39.2601625 8.9299314,36.7711827 4.88591018,32.7892673 C-2.7732465,25.2482747 -1.9650051,8.20359633 11.157098,1.99556179 C13.8114618,0.7400487 16.5266126,-0.100540206 19.5136162,0.00969169477 C22.474729,0.11822772 25.4431588,0.0334339504 28.4841952,0.0334339504 L28.4841952,8.09958264 C28.0761346,8.12389019 27.6900248,8.1645912 27.3033522,8.16628707 C25.4561041,8.17307058 23.6082932,8.19681283 21.7616079,8.16402591 C17.099586,8.08092801 13.8367897,10.3669681 11.9878531,14.5546497 C10.0077742,19.0391096 10.3623648,23.5009577 13.2553737,27.5230089 C15.0373321,30.0012481 17.556051,31.2884176 20.6387377,31.2838952 C24.8763767,31.277677 29.1145785,31.2584571 33.3522174,31.3014193 C34.2522021,31.3104639 34.5583882,31.0402545 34.5251805,30.1154371 C34.4627051,28.3839483 34.4660821,26.6473719 34.5240549,24.9164484 C34.5538855,24.0176344 34.2178687,23.801693 33.3871136,23.8073459 C28.4611187,23.8401328 23.5345609,23.8045194 18.6085659,23.8412634 C17.7710567,23.8474816 17.4536137,23.6287137 17.4755646,22.740075 C17.5262204,20.6761946 17.5290346,18.6089225 17.4744389,16.5450421 C17.4502367,15.6326612 17.8172098,15.4353743 18.6277025,15.4398967 C23.4816537,15.467596 28.3356048,15.4285908 33.1889932,15.4732489 C34.1891637,15.4828588 34.4970384,15.1645996 34.4863444,14.1521619 C34.4407542,9.91134286 34.4649564,5.66939319 34.470022,1.42800882 C34.4705848,0.997256469 34.5139237,0.566504118 34.5420658,0.0334339504 L35.8050837,0.0334339504 C40.1879359,0.0334339504 44.5719138,0.0944854647 48.9530775,0.0125181538 C52.0644692,-0.0462721934 54.5133957,1.20415327 56.4293105,3.58120529 C59.3228823,7.17250409 62.1641097,10.8084609 64.9929546,14.4528972 C65.6796221,15.3375788 66.4208853,15.9757933 67.5651435,15.5829155 C68.7212214,15.1860806 68.9069593,14.1917324 68.900768,13.0831951 C68.8771287,9.17420235 68.8838828,5.26464427 68.8788172,1.35508618 C68.8782543,0.958251335 68.8788172,0.561416491 68.8788172,0.0990077991 L99.5914276,0.0990077991 Z" id="Fill-1"></path>
                </g>
            </g>
        </g>
    </g>
</svg>